<svg width="2404" height="721" viewBox="0 0 2404 721" fill="none" xmlns="http://www.w3.org/2000/svg">
<path d="M1091.28 301.889C1089.39 285.08 1081.57 272.06 1067.84 262.827C1054.11 253.475 1036.83 248.8 1016 248.8C1001.08 248.8 988.18 251.167 977.29 255.902C966.4 260.518 957.936 266.911 951.899 275.078C945.981 283.127 943.021 292.301 943.021 302.599C943.021 311.241 945.034 318.698 949.058 324.972C953.201 331.245 958.587 336.513 965.216 340.774C971.963 344.917 979.184 348.409 986.878 351.25C994.572 353.973 1001.97 356.222 1009.07 357.997L1044.58 367.23C1056.18 370.071 1068.08 373.918 1080.27 378.771C1092.46 383.625 1103.77 390.017 1114.19 397.947C1124.6 405.878 1133.01 415.703 1139.4 427.422C1145.91 439.141 1149.16 453.168 1149.16 469.503C1149.16 490.099 1143.84 508.388 1133.18 524.368C1122.65 540.348 1107.32 552.955 1087.2 562.188C1067.19 571.42 1042.99 576.037 1014.58 576.037C987.351 576.037 963.795 571.716 943.909 563.075C924.023 554.434 908.457 542.183 897.212 526.321C885.966 510.341 879.752 491.402 878.568 469.503H933.611C934.676 482.642 938.938 493.591 946.395 502.351C953.971 510.992 963.618 517.443 975.337 521.705C987.174 525.848 1000.14 527.919 1014.22 527.919C1029.73 527.919 1043.52 525.492 1055.59 520.639C1067.78 515.668 1077.37 508.802 1084.36 500.043C1091.34 491.165 1094.83 480.807 1094.83 468.97C1094.83 458.198 1091.75 449.38 1085.6 442.514C1079.56 435.649 1071.34 429.967 1060.92 425.469C1050.62 420.971 1038.96 417.005 1025.94 413.572L982.972 401.854C953.852 393.923 930.77 382.263 913.724 366.875C896.797 351.487 888.334 331.127 888.334 305.795C888.334 284.844 894.016 266.555 905.379 250.93C916.743 235.305 932.131 223.172 951.544 214.531C970.957 205.772 992.856 201.392 1017.24 201.392C1041.86 201.392 1063.58 205.713 1082.4 214.354C1101.34 222.995 1116.26 234.891 1127.15 250.043C1138.04 265.076 1143.72 282.358 1144.19 301.889H1091.28ZM1330.27 297.273V339.886H1181.3V297.273H1330.27ZM1221.25 231.932H1274.34V489.922C1274.34 500.22 1275.88 507.973 1278.96 513.182C1282.04 518.272 1286 521.764 1290.86 523.658C1295.83 525.433 1301.21 526.321 1307.01 526.321C1311.28 526.321 1315 526.025 1318.2 525.433C1321.4 524.841 1323.88 524.368 1325.66 524.013L1335.25 567.869C1332.17 569.053 1327.79 570.237 1322.11 571.42C1316.43 572.723 1309.32 573.433 1300.8 573.551C1286.83 573.788 1273.81 571.302 1261.74 566.094C1249.66 560.885 1239.9 552.836 1232.44 541.946C1224.98 531.056 1221.25 517.384 1221.25 500.93V231.932ZM1381.5 570V297.273H1432.82V340.597H1435.66C1440.63 325.919 1449.39 314.377 1461.93 305.973C1474.6 297.45 1488.92 293.189 1504.9 293.189C1508.22 293.189 1512.12 293.307 1516.62 293.544C1521.24 293.781 1524.85 294.077 1527.45 294.432V345.213C1525.32 344.621 1521.53 343.97 1516.09 343.26C1510.64 342.431 1505.2 342.017 1499.75 342.017C1487.21 342.017 1476.02 344.68 1466.2 350.007C1456.49 355.215 1448.8 362.495 1443.11 371.847C1437.43 381.08 1434.59 391.615 1434.59 403.452V570H1381.5ZM1607.75 672.273C1599.82 672.273 1592.6 671.622 1586.09 670.32C1579.58 669.136 1574.73 667.834 1571.53 666.413L1584.32 622.912C1594.02 625.516 1602.67 626.641 1610.24 626.286C1617.82 625.93 1624.5 623.089 1630.3 617.763C1636.22 612.436 1641.43 603.736 1645.93 591.662L1652.5 573.551L1552.71 297.273H1609.53L1678.6 508.92H1681.44L1750.51 297.273H1807.51L1695.11 606.399C1689.9 620.604 1683.28 632.618 1675.23 642.443C1667.18 652.386 1657.59 659.844 1646.46 664.815C1635.34 669.787 1622.43 672.273 1607.75 672.273ZM1942.72 575.327C1920.7 575.327 1901.05 569.704 1883.77 558.459C1866.6 547.095 1853.11 530.937 1843.29 509.986C1833.58 488.916 1828.73 463.643 1828.73 434.169C1828.73 404.695 1833.64 379.482 1843.46 358.53C1853.41 337.578 1867.02 321.539 1884.3 310.412C1901.58 299.285 1921.17 293.722 1943.07 293.722C1960 293.722 1973.61 296.562 1983.91 302.244C1994.33 307.808 2002.38 314.318 2008.06 321.776C2013.86 329.233 2018.36 335.803 2021.55 341.484H2024.75V206.364H2077.84V570H2025.99V527.564H2021.55C2018.36 533.364 2013.74 539.993 2007.7 547.45C2001.78 554.908 1993.62 561.418 1983.2 566.982C1972.78 572.545 1959.29 575.327 1942.72 575.327ZM1954.44 530.05C1969.71 530.05 1982.61 526.025 1993.14 517.976C2003.8 509.808 2011.85 498.504 2017.29 484.062C2022.85 469.621 2025.64 452.812 2025.64 433.636C2025.64 414.697 2022.91 398.125 2017.47 383.92C2012.02 369.716 2004.03 358.648 1993.5 350.717C1982.96 342.786 1969.94 338.821 1954.44 338.821C1938.46 338.821 1925.14 342.964 1914.49 351.25C1903.83 359.536 1895.78 370.84 1890.34 385.163C1885.01 399.486 1882.35 415.644 1882.35 433.636C1882.35 451.866 1885.07 468.26 1890.52 482.82C1895.96 497.379 1904.01 508.92 1914.66 517.443C1925.44 525.848 1938.69 530.05 1954.44 530.05ZM2263.65 575.504C2236.78 575.504 2213.64 569.763 2194.23 558.281C2174.93 546.681 2160.02 530.405 2149.48 509.453C2139.07 488.383 2133.86 463.703 2133.86 435.412C2133.86 407.476 2139.07 382.855 2149.48 361.548C2160.02 340.241 2174.7 323.61 2193.52 311.655C2212.46 299.699 2234.59 293.722 2259.92 293.722C2275.31 293.722 2290.23 296.267 2304.67 301.357C2319.11 306.446 2332.07 314.437 2343.55 325.327C2355.04 336.217 2364.09 350.362 2370.72 367.763C2377.35 385.045 2380.66 406.056 2380.66 430.795V449.616H2163.87V409.844H2328.64C2328.64 395.876 2325.8 383.506 2320.12 372.734C2314.43 361.844 2306.44 353.262 2296.15 346.989C2285.97 340.715 2274.01 337.578 2260.28 337.578C2245.37 337.578 2232.34 341.248 2221.22 348.587C2210.21 355.807 2201.69 365.277 2195.65 376.996C2189.73 388.596 2186.77 401.203 2186.77 414.815V445.888C2186.77 464.117 2189.97 479.624 2196.36 492.408C2202.87 505.192 2211.93 514.957 2223.53 521.705C2235.13 528.333 2248.68 531.648 2264.19 531.648C2274.25 531.648 2283.42 530.227 2291.71 527.386C2299.99 524.427 2307.15 520.047 2313.19 514.247C2319.23 508.447 2323.85 501.286 2327.04 492.763L2377.29 501.818C2373.27 516.615 2366.04 529.576 2355.63 540.703C2345.33 551.712 2332.37 560.294 2316.74 566.449C2301.24 572.486 2283.54 575.504 2263.65 575.504Z" fill="#CBB484"/>
<path d="M570.372 224.788C572.466 222.907 575.699 223.124 577.522 225.269L750.198 428.334C751.887 430.321 751.766 433.273 749.919 435.114L464.646 719.443C463.709 720.377 462.439 720.901 461.116 720.901L31.2447 720.903C26.6602 720.903 24.4927 715.248 27.9029 712.184L222.304 537.519H557.289V236.542L570.372 224.788ZM720.144 0C724.729 -2.61577e-05 726.896 5.65573 723.486 8.71973L528.935 183.519H192.289V485.986L181.017 496.114C178.923 497.995 175.69 497.779 173.867 495.635L1.19101 292.569C-0.498658 290.582 -0.377099 287.63 1.47031 285.789L286.743 1.45996C287.68 0.525947 288.949 0.00107338 290.272 0.000976563L720.144 0Z" fill="#CBB484"/>
</svg>
